<?xml version="1.0" standalone="no"?>
<!DOCTYPE svg PUBLIC "-//W3C//DTD SVG 20010904//EN"
 "http://www.w3.org/TR/2001/REC-SVG-20010904/DTD/svg10.dtd">
<svg version="1.0" xmlns="http://www.w3.org/2000/svg"
 width="300.000000pt" height="374.000000pt" viewBox="0 0 300.000000 374.000000"
 preserveAspectRatio="xMidYMid meet">
<metadata>
eye outline
</metadata>
<g transform="translate(0.000000,374.000000) scale(0.100000,-0.100000)"
fill="#000000" stroke="none">
<path d="M1068 2542 c-25 -9 -55 -25 -65 -34 -11 -10 -24 -18 -30 -18 -13 0
-38 -29 -30 -36 3 -3 46 2 96 10 50 9 140 16 200 16 61 0 112 4 115 8 10 17
-6 50 -27 56 -12 4 -65 8 -117 11 -75 4 -105 1 -142 -13z"/>
<path d="M1702 2550 c-62 -9 -59 -8 -64 -40 l-3 -25 145 -6 c80 -4 169 -12
199 -18 67 -14 71 -14 71 2 -1 17 -79 65 -137 82 -51 16 -125 17 -211 5z"/>
<path d="M1360 2533 c0 -4 8 -17 16 -28 15 -20 16 -20 12 4 -3 22 -28 44 -28
24z"/>
<path d="M1611 2531 c-7 -5 -11 -17 -9 -27 4 -17 5 -17 17 4 14 27 12 35 -8
23z"/>
<path d="M1065 2329 c-33 -11 -64 -25 -69 -30 -15 -14 5 -11 69 11 74 25 157
26 213 0 23 -11 40 -15 36 -9 -13 22 -90 49 -139 48 -27 0 -77 -9 -110 -20z"/>
<path d="M1724 2331 c-23 -10 -45 -24 -49 -30 -4 -7 10 -4 32 5 61 28 145 29
220 4 78 -26 95 -19 27 11 -70 31 -177 36 -230 10z"/>
<path d="M1075 2290 c-38 -10 -83 -19 -99 -19 -22 -1 -27 -4 -19 -12 11 -11
67 -8 109 6 18 6 20 3 16 -27 -4 -34 27 -88 51 -88 7 0 24 -7 40 -14 23 -12
27 -13 27 -1 0 7 8 16 18 20 35 11 55 88 30 113 -21 21 6 13 45 -14 44 -29 58
-28 24 3 -30 27 -100 53 -140 52 -17 0 -63 -9 -102 -19z m153 -16 c18 -5 15
-64 -5 -86 -23 -26 -69 -23 -98 7 -60 59 5 110 103 79z"/>
<path d="M1725 2286 c-27 -12 -56 -30 -64 -39 -19 -24 -7 -21 44 9 l44 25 -11
-29 c-13 -34 5 -80 38 -97 11 -5 19 -16 16 -23 -2 -6 1 -12 7 -12 6 0 11 4 11
9 0 5 13 12 29 16 51 11 89 72 68 110 -8 16 -7 17 14 11 49 -15 106 -18 113
-7 5 7 -2 11 -19 11 -14 0 -58 9 -97 20 -93 26 -132 25 -193 -4z m153 -19 c36
-28 -5 -97 -58 -97 -51 0 -88 57 -62 96 14 23 91 24 120 1z"/>
<path d="M1034 2181 c10 -11 15 -25 11 -30 -7 -13 14 -14 33 -3 9 6 4 14 -18
30 -36 27 -49 28 -26 3z"/>
<path d="M1931 2176 c-25 -19 -29 -25 -16 -30 26 -9 37 -7 32 7 -2 6 3 17 12
24 9 6 13 14 10 17 -3 3 -20 -5 -38 -18z"/>
<path d="M1277 2174 c-16 -8 -27 -20 -24 -27 4 -13 29 -23 25 -9 -2 5 8 19 22
30 29 25 17 28 -23 6z"/>
<path d="M1690 2168 c14 -11 24 -25 23 -29 -4 -13 15 -11 23 2 8 13 -33 49
-56 48 -10 0 -7 -6 10 -21z"/>
</g>
</svg>
